<svg width="65" height="65" viewBox="0 0 65 65" fill="none" xmlns="http://www.w3.org/2000/svg">
<g filter="url(#filter0_d_36_10326)">
<circle cx="32.5" cy="29.5" r="22.5" fill="url(#paint0_linear_36_10326)"/>
<path d="M33.0625 18.25C26.534 18.25 21.25 23.5331 21.25 30.0625C21.25 32.1344 21.7904 34.158 22.8165 35.9428L21.2945 40.6692C21.1884 40.9987 21.2756 41.3599 21.5204 41.6046C21.7628 41.8471 22.1231 41.9375 22.4558 41.8305L27.1822 40.3085C28.967 41.3346 30.9906 41.875 33.0625 41.875C39.591 41.875 44.875 36.5919 44.875 30.0625C44.875 23.534 39.5919 18.25 33.0625 18.25ZM33.0625 40.0293C31.191 40.0293 29.3668 39.5071 27.7869 38.5192C27.5596 38.3772 27.2774 38.3388 27.0148 38.4233L23.6029 39.5221L24.7017 36.1102C24.785 35.8514 24.7498 35.5688 24.6056 35.3381C23.6179 33.7582 23.0957 31.934 23.0957 30.0625C23.0957 24.5668 27.5668 20.0957 33.0625 20.0957C38.5582 20.0957 43.0293 24.5668 43.0293 30.0625C43.0293 35.5582 38.5582 40.0293 33.0625 40.0293ZM34.2161 30.0625C34.2161 30.6995 33.6997 31.2161 33.0625 31.2161C32.4253 31.2161 31.9089 30.6995 31.9089 30.0625C31.9089 29.4253 32.4253 28.9089 33.0625 28.9089C33.6997 28.9089 34.2161 29.4253 34.2161 30.0625ZM38.8303 30.0625C38.8303 30.6995 38.3139 31.2161 37.6768 31.2161C37.0396 31.2161 36.5232 30.6995 36.5232 30.0625C36.5232 29.4253 37.0396 28.9089 37.6768 28.9089C38.3139 28.9089 38.8303 29.4253 38.8303 30.0625ZM29.6018 30.0625C29.6018 30.6995 29.0854 31.2161 28.4482 31.2161C27.8113 31.2161 27.2947 30.6995 27.2947 30.0625C27.2947 29.4253 27.8113 28.9089 28.4482 28.9089C29.0854 28.9089 29.6018 29.4253 29.6018 30.0625Z" fill="white"/>
</g>
<defs>
<filter id="filter0_d_36_10326" x="0" y="0" width="65" height="65" filterUnits="userSpaceOnUse" color-interpolation-filters="sRGB">
<feFlood flood-opacity="0" result="BackgroundImageFix"/>
<feColorMatrix in="SourceAlpha" type="matrix" values="0 0 0 0 0 0 0 0 0 0 0 0 0 0 0 0 0 0 127 0" result="hardAlpha"/>
<feOffset dy="3"/>
<feGaussianBlur stdDeviation="5"/>
<feComposite in2="hardAlpha" operator="out"/>
<feColorMatrix type="matrix" values="0 0 0 0 0.773372 0 0 0 0 0.800799 0 0 0 0 0.841939 0 0 0 1 0"/>
<feBlend mode="normal" in2="BackgroundImageFix" result="effect1_dropShadow_36_10326"/>
<feBlend mode="normal" in="SourceGraphic" in2="effect1_dropShadow_36_10326" result="shape"/>
</filter>
<linearGradient id="paint0_linear_36_10326" x1="33.64" y1="-7.80884" x2="73.9804" y2="42.5184" gradientUnits="userSpaceOnUse">
<stop stop-color="#33DEE9"/>
<stop offset="1" stop-color="#42E884"/>
</linearGradient>
</defs>
</svg>
