<svg width="33" height="31" viewBox="0 0 33 31" fill="none" xmlns="http://www.w3.org/2000/svg">
<path fill-rule="evenodd" clip-rule="evenodd" d="M16.1667 30.3242C7.2381 30.3242 0 23.5358 0 15.1621C0 6.7883 7.2381 0 16.1667 0C25.0953 0 32.3335 6.7883 32.3335 15.1621C32.3335 23.5358 25.0953 30.3242 16.1667 30.3242ZM16.1668 3.03242C9.02387 3.03242 3.23339 8.46306 3.23339 15.1621C3.23339 18.6332 4.78792 21.7635 7.27964 23.9746C8.59157 21.4501 11.3543 19.7107 14.5501 19.7107H18.5918C21.5697 19.7107 24.1299 21.3889 25.2556 23.7918C27.6292 21.5927 29.1002 18.5386 29.1002 15.1621C29.1002 8.46306 23.3097 3.03242 16.1668 3.03242ZM22.54 25.7193C22.1426 24.0172 20.5258 22.7432 18.5918 22.7432H14.5501C12.4253 22.7432 10.6197 24.0245 9.96386 25.8083C11.8054 26.7541 13.9191 27.2918 16.1668 27.2918C18.484 27.2918 20.6589 26.7203 22.54 25.7193ZM16.1667 18.1945C12.5953 18.1945 9.70005 15.4791 9.70005 12.1297C9.70005 8.78016 12.5953 6.06484 16.1667 6.06484C19.7381 6.06484 22.6334 8.78016 22.6334 12.1297C22.6334 15.4791 19.7381 18.1945 16.1667 18.1945ZM16.1668 9.09726C14.381 9.09726 12.9334 10.4549 12.9334 12.1297C12.9334 13.8045 14.381 15.1621 16.1668 15.1621C17.9526 15.1621 19.4001 13.8045 19.4001 12.1297C19.4001 10.4549 17.9526 9.09726 16.1668 9.09726Z" fill="#919AA3"/>
</svg>
