<svg width="11" height="12" viewBox="0 0 11 12" fill="none" xmlns="http://www.w3.org/2000/svg">
<path fill-rule="evenodd" clip-rule="evenodd" d="M9.62895 6.00002C9.62895 8.35645 7.81802 10.2667 5.5841 10.2667C3.35018 10.2667 1.53924 8.35645 1.53924 6.00002C1.53924 3.6436 3.35018 1.73335 5.5841 1.73335C7.81802 1.73335 9.62895 3.6436 9.62895 6.00002ZM10.6402 6.00002C10.6402 8.94551 8.37646 11.3334 5.5841 11.3334C2.79171 11.3334 0.52803 8.94551 0.52803 6.00002C0.52803 3.0545 2.79171 0.666687 5.5841 0.666687C8.37646 0.666687 10.6402 3.0545 10.6402 6.00002ZM6.0897 3.33335C6.0897 3.0388 5.86334 2.80002 5.5841 2.80002C5.30485 2.80002 5.07849 3.0388 5.07849 3.33335V6.00002C5.07849 6.16791 5.15342 6.32594 5.28073 6.42669L7.30316 8.02669C7.52653 8.20343 7.84345 8.15565 8.01101 7.92002C8.17856 7.68439 8.13326 7.3501 7.90989 7.17335L6.0897 5.73335V3.33335Z" fill="#919AA3"/>
</svg>
