<svg width="24" height="25" viewBox="0 0 24 25" fill="none" xmlns="http://www.w3.org/2000/svg">
<rect width="24" height="24" transform="translate(0 0.246399)" fill="white"/>
<path d="M21.7431 12.5774L12.7431 3.5774C12.3641 3.1554 11.6361 3.1554 11.2571 3.5774L2.25706 12.5774C1.99206 12.8704 1.92606 13.2924 2.08706 13.6534C2.24706 14.0144 2.60506 14.2464 3.00006 14.2464H5.00006V21.2464C5.00006 21.7984 5.44706 22.2464 6.00006 22.2464H9.00006C9.55306 22.2464 10.0001 21.7984 10.0001 21.2464V18.2464H14.0001V21.2464C14.0001 21.7984 14.4471 22.2464 15.0001 22.2464H18.0001C18.5531 22.2464 19.0001 21.7984 19.0001 21.2464V14.2464H21.0001C21.3951 14.2464 21.7531 14.0144 21.9131 13.6534C22.0741 13.2924 22.0081 12.8714 21.7431 12.5774Z" fill="#D0D3E5"/>
</svg>
