<svg width="90" height="90" viewBox="0 0 90 90" fill="none" xmlns="http://www.w3.org/2000/svg">
<circle cx="45" cy="45" r="45" fill="#FFEEB7"/>
<mask id="mask0_32_975" style="mask-type:alpha" maskUnits="userSpaceOnUse" x="0" y="0" width="90" height="90">
<circle cx="45" cy="45" r="45" fill="white"/>
</mask>
<g mask="url(#mask0_32_975)">
<path d="M51.9282 65.7812L75.9748 78.4639C77.3855 79.2079 78.6042 80.3016 79.5264 81.6513C80.4486 83.001 81.0469 84.5664 81.2699 86.2134L81.8478 90.4807H9L9.5779 86.2134C9.80096 84.5664 10.3992 83.001 11.3214 81.6513C12.2437 80.3016 13.4623 79.2079 14.873 78.4639L38.9196 65.7812H51.9282Z" fill="#026CA2"/>
<path d="M38.9199 65.7812H51.9285V90.4807H38.9199V65.7812Z" fill="#CBCBCB"/>
<path d="M38.9196 60.2925V65.7812L37.6188 69.8978V71.27H53.229V69.8978L51.9282 65.7812V60.2925H38.9196Z" fill="#FDC9A6"/>
<path d="M51.9285 60.2925V63.6612C51.9155 63.6715 51.9008 63.6801 51.8878 63.6904C49.9728 65.058 47.7122 65.7866 45.3996 65.7814C43.087 65.7762 40.8293 65.0375 38.9199 63.6612V60.2925H51.9285Z" fill="#FDC9A6"/>
<path d="M51.9285 60.2925V63.6612C51.9155 63.6715 51.9008 63.6801 51.8878 63.6904C49.9728 65.058 47.7122 65.7866 45.3996 65.7814C43.087 65.7762 40.8293 65.0375 38.9199 63.6612V60.2925H51.9285Z" fill="#E6AF89"/>
<path d="M15.5045 90.4807V84.9919C15.5045 84.628 15.6415 84.279 15.8855 84.0217C16.1294 83.7643 16.4603 83.6198 16.8053 83.6198C17.1503 83.6198 17.4812 83.7643 17.7251 84.0217C17.9691 84.279 18.1062 84.628 18.1062 84.9919V90.4807H15.5045Z" fill="#015078"/>
<path d="M72.7419 90.4807V84.9919C72.7419 84.628 72.879 84.279 73.123 84.0217C73.3669 83.7643 73.6978 83.6198 74.0428 83.6198C74.3878 83.6198 74.7187 83.7643 74.9626 84.0217C75.2066 84.279 75.3437 84.628 75.3437 84.9919V90.4807H72.7419Z" fill="#015078"/>
<path d="M41.3353 73.4262L42.822 78.131H48.0255L49.5122 73.4262L45.4238 71.27L41.3353 73.4262Z" fill="#0296E5"/>
<path d="M42.8224 78.131L41.5215 90.4807H49.3267L48.0258 78.131H42.8224Z" fill="#026CA2"/>
<path d="M62.4853 36.266L63.0416 33.9332C63.6269 31.4788 63.6434 28.9117 63.0897 26.4491C62.5359 23.9865 61.4282 21.7008 59.8602 19.7851C58.2685 17.5413 56.0918 15.8349 53.596 14.8743C51.1002 13.9137 48.3932 13.7404 45.8056 14.3756C44.9428 14.5876 44.0833 14.7984 43.2631 14.9994C41.4915 15.4333 39.8326 16.2742 38.4044 17.462C36.9762 18.6498 35.8141 20.1553 35.0007 21.8712H34.6553C33.5509 21.8712 32.4617 22.1425 31.4739 22.6635C30.4861 23.1845 29.6268 23.9409 28.9641 24.8728C27.8319 26.4651 27.3458 28.4667 27.6127 30.4371L28.4964 36.9653L28.9701 41.0818H61.0341L62.1048 37.6502C62.2474 37.1936 62.3742 36.7322 62.4853 36.266Z" fill="#55300B"/>
<path d="M45.424 63.0369C43.12 63.0369 40.8688 62.3086 38.9609 60.9461C37.0529 59.5835 35.5758 57.6492 34.7201 55.3926C33.1976 51.3778 32.4154 47.0933 32.4155 42.7692V32.8487L36.318 25.8625C38.3776 28.0748 40.8345 29.8319 43.545 31.0314C46.2556 32.2309 49.1656 32.8487 52.105 32.8487H58.4326V42.7692C58.4327 47.0935 57.6505 51.3782 56.1279 55.3933C55.2721 57.6497 53.7949 59.5839 51.887 60.9463C49.9791 62.3088 47.728 63.0369 45.424 63.0369Z" fill="#FDC9A6"/>
<path d="M53.2288 38.3375H49.3262C48.9812 38.3375 48.6504 38.1929 48.4064 37.9356C48.1624 37.6782 48.0254 37.3292 48.0254 36.9653C48.0254 36.6013 48.1624 36.2523 48.4064 35.995C48.6504 35.7376 48.9812 35.5931 49.3262 35.5931H53.2288C53.5738 35.5931 53.9047 35.7376 54.1487 35.995C54.3926 36.2523 54.5297 36.6013 54.5297 36.9653C54.5297 37.3292 54.3926 37.6782 54.1487 37.9356C53.9047 38.1929 53.5738 38.3375 53.2288 38.3375Z" fill="#55300B"/>
<path d="M50.9519 43.1401C51.85 43.1401 52.578 42.3722 52.578 41.4249C52.578 40.4776 51.85 39.7097 50.9519 39.7097C50.0539 39.7097 49.3259 40.4776 49.3259 41.4249C49.3259 42.3722 50.0539 43.1401 50.9519 43.1401Z" fill="#55300B"/>
<path d="M41.521 38.3375H37.6185C37.2735 38.3375 36.9426 38.1929 36.6986 37.9356C36.4547 37.6782 36.3176 37.3292 36.3176 36.9653C36.3176 36.6013 36.4547 36.2523 36.6986 35.995C36.9426 35.7376 37.2735 35.5931 37.6185 35.5931H41.521C41.8661 35.5931 42.1969 35.7376 42.4409 35.995C42.6848 36.2523 42.8219 36.6013 42.8219 36.9653C42.8219 37.3292 42.6848 37.6782 42.4409 37.9356C42.1969 38.1929 41.8661 38.3375 41.521 38.3375Z" fill="#55300B"/>
<path d="M39.8948 43.1401C40.7929 43.1401 41.5209 42.3722 41.5209 41.4249C41.5209 40.4776 40.7929 39.7097 39.8948 39.7097C38.9968 39.7097 38.2687 40.4776 38.2687 41.4249C38.2687 42.3722 38.9968 43.1401 39.8948 43.1401Z" fill="#55300B"/>
<path d="M48.0258 54.8037H42.8224C42.4774 54.8037 42.1465 54.6591 41.9026 54.4018C41.6586 54.1445 41.5215 53.7954 41.5215 53.4315C41.5215 53.0676 41.6586 52.7186 41.9026 52.4612C42.1465 52.2039 42.4774 52.0593 42.8224 52.0593H48.0258C48.3708 52.0593 48.7017 52.2039 48.9457 52.4612C49.1896 52.7186 49.3267 53.0676 49.3267 53.4315C49.3267 53.7954 49.1896 54.1445 48.9457 54.4018C48.7017 54.6591 48.3708 54.8037 48.0258 54.8037Z" fill="#E6AF89"/>
<path d="M46.7247 49.315H44.1229C43.7779 49.315 43.4471 49.1704 43.2031 48.9131C42.9591 48.6558 42.8221 48.3067 42.8221 47.9428V43.8262C42.8221 43.4623 42.9591 43.1133 43.2031 42.8559C43.4471 42.5986 43.7779 42.454 44.1229 42.454C44.4679 42.454 44.7988 42.5986 45.0428 42.8559C45.2867 43.1133 45.4238 43.4623 45.4238 43.8262V46.5706H46.7247C47.0697 46.5706 47.4005 46.7152 47.6445 46.9725C47.8885 47.2299 48.0255 47.5789 48.0255 47.9428C48.0255 48.3067 47.8885 48.6558 47.6445 48.9131C47.4005 49.1704 47.0697 49.315 46.7247 49.315Z" fill="#E6AF89"/>
<path d="M32.4156 36.9653H30.6178C29.7146 36.9653 28.8483 37.3438 28.2096 38.0175C27.571 38.6912 27.2122 39.6049 27.2122 40.5577V42.9782C27.2122 43.5359 27.3353 44.0859 27.5717 44.5847C27.8545 45.1814 28.2893 45.6833 28.8273 46.0341C29.3653 46.3848 29.9853 46.5706 30.6178 46.5706H32.9034L32.4156 36.9653Z" fill="#FDC9A6"/>
<path d="M58.4322 36.9653H60.2299C61.1332 36.9653 61.9994 37.3438 62.6381 38.0175C63.2768 38.6912 63.6356 39.6049 63.6356 40.5577V42.9782C63.6356 43.5359 63.5125 44.0859 63.2761 44.5847C62.9932 45.1814 62.5584 45.6833 62.0204 46.0341C61.4824 46.3848 60.8624 46.5706 60.2299 46.5706H57.9443L58.4322 36.9653Z" fill="#FDC9A6"/>
<path d="M38.9196 65.7812L45.4239 71.27L37.6188 75.3866V69.8978L38.9196 65.7812Z" fill="#EBEBEB"/>
<path d="M51.928 65.7812L45.4237 71.27L53.2288 75.3866V69.8978L51.928 65.7812Z" fill="#EBEBEB"/>
<path d="M38.9195 90.4807H32.4153L28.5127 78.131L38.9195 65.7812V90.4807Z" fill="#0296E5"/>
<path d="M51.9282 90.4807H58.4324L62.335 78.131L51.9282 65.7812V90.4807Z" fill="#0296E5"/>
</g>
</svg>
