<svg width="49" height="49" viewBox="0 0 49 49" fill="none" xmlns="http://www.w3.org/2000/svg">
<rect width="49" height="49" rx="12" fill="#FFF6DA"/>
<path d="M35.6539 37.8304V40.5465C35.6539 40.8522 35.4062 41.0999 35.1004 41.0999H14.8996C14.5939 41.0999 14.3462 40.8522 14.3462 40.5465V37.8304C14.3462 35.7419 15.588 33.9425 17.3735 33.131C16.645 32.5513 15.5346 31.7722 14.7267 30.096C13.6015 27.7647 13.7941 25.0145 15.2276 22.8618C16.0065 21.6926 16.4216 20.3201 16.4216 18.9157V15.9181C16.4216 12.0972 19.5188 9 23.3397 9H26.6604C30.4812 9 33.5785 12.0972 33.5785 15.9181C33.5785 19.0926 33.5009 19.7142 33.8836 20.9766C34.4235 22.7615 35.1367 22.9823 35.6864 24.7988C36.5505 27.6542 35.5947 30.7682 33.2395 32.6432L32.6265 33.131C34.4121 33.9425 35.6539 35.7419 35.6539 37.8304Z" fill="#FFDFBA"/>
<path d="M35.6539 37.8305V40.5465C35.6539 40.8521 35.4061 41.0999 35.1004 41.0999H14.8996C14.594 41.0999 14.3462 40.8521 14.3462 40.5465V37.8305C14.3462 34.9828 16.6547 32.6716 19.505 32.6716C19.9291 32.6716 20.3317 32.5796 20.6935 32.415L20.7108 32.4523L24.6612 35.5107C24.8607 35.6651 25.1393 35.6651 25.3389 35.5107L29.2892 32.4523L29.3065 32.415C29.6683 32.5796 30.071 32.6716 30.495 32.6716C33.3343 32.6716 35.6539 34.9718 35.6539 37.8305V37.8305Z" fill="#FFAA64"/>
<path d="M31.3251 19.1182C31.6189 19.135 31.8489 19.3764 31.8489 19.6707V22.9835C31.8489 25.8386 30.1021 28.2855 27.6185 29.3135C23.1275 31.1778 18.1511 27.866 18.1511 22.9835V19.7189C18.1511 19.3945 18.4289 19.1381 18.752 19.1674C22.0718 19.4684 25.3409 18.6301 28.0861 16.7807C28.3983 16.5704 28.8282 16.7262 28.9268 17.0896C29.2682 18.3482 30.1996 19.0541 31.3251 19.1182Z" fill="#FFEBD2"/>
<path d="M33.2395 32.6432L32.6265 33.131C31.9769 32.8363 31.2553 32.6716 30.495 32.6716C28.9157 32.6716 27.6289 31.3963 27.6289 29.8117V29.3392L27.6185 29.3136C30.1021 28.2855 31.8489 25.8386 31.8489 22.9835V19.6707C31.8489 19.3764 31.6189 19.135 31.3251 19.1183C30.2066 19.0545 29.2705 18.3564 28.9268 17.0897C28.8282 16.7263 28.3983 16.5705 28.0861 16.7808C25.3427 18.6289 22.0738 19.4687 18.752 19.1675C18.4289 19.1382 18.1511 19.3946 18.1511 19.7189V22.9836C18.1511 25.8387 19.8979 28.2856 22.3815 29.3136L22.3711 29.3392V29.8117C22.3711 31.3961 21.0847 32.6717 19.505 32.6717C18.7447 32.6717 18.0231 32.8363 17.3735 33.131L16.7606 32.6433C13.785 30.2723 13.1225 26.0231 15.2275 22.8618C16.0065 21.6927 16.4216 20.3201 16.4216 18.9158V15.9181C16.4216 12.0974 19.5189 9 23.3397 9H26.6604C30.4811 9 33.5784 12.0974 33.5784 15.9181V18.9157C33.5784 20.3184 33.9935 21.6926 34.7725 22.8618C36.8852 26.0345 36.2037 30.2833 33.2395 32.6432V32.6432Z" fill="#42434D"/>
<path d="M27.7069 30.4751C26.0025 31.1885 24.1294 31.2439 22.2928 30.4751C22.3866 30.0859 22.3709 29.8338 22.3709 29.3391L22.3813 29.3135C24.0473 30.0051 25.949 30.0064 27.6183 29.3135L27.6287 29.3391C27.6287 29.834 27.6131 30.086 27.7069 30.4751Z" fill="#FFD6A6"/>
<path d="M29.7854 9.74452C30.4919 10.1029 30.1849 11.1812 29.3962 11.1066C29.1788 11.0859 28.9584 11.0754 28.7355 11.0754H25.4148C21.5941 11.0754 18.4968 14.1728 18.4968 17.9935V18.8353C18.4968 19.3323 18.1509 19.3162 18.1509 19.7189C18.1509 23.3732 18.1657 23.1418 18.112 23.2995C17.5693 24.896 16.9176 25.1271 16.3888 26.8743C16.1008 27.8259 16.0157 28.8059 16.1155 29.757C16.1969 30.5332 15.1161 30.9045 14.7264 30.096C13.6092 27.7814 13.7842 25.029 15.2273 22.8618C16.0062 21.6926 16.4213 20.3201 16.4213 18.9157V15.9181C16.4213 12.0974 19.5187 9 23.3394 9H26.6601C27.7848 9 28.8467 9.26835 29.7854 9.74452V9.74452Z" fill="#4D4E59"/>
<path d="M23.687 27.5715C24.7205 28.2633 23.9328 29.8635 22.7593 29.4516C20.1798 28.5465 18.1511 26.139 18.1511 22.9834V19.7188C18.1511 19.3943 18.4292 19.1384 18.7523 19.1674C19.0174 19.1915 19.3085 19.2104 19.6226 19.2201C20.1912 19.2374 20.6416 19.7069 20.6416 20.2758V21.8766C20.6416 24.2859 21.87 26.3552 23.687 27.5715Z" fill="#FFF3E4"/>
<path d="M21.8518 33.3357C22.1801 33.5899 22.0066 34.1228 21.5914 34.1244C18.6628 34.1354 16.4216 36.4869 16.4216 39.2833V41.0999H14.8996C14.594 41.0999 14.3462 40.8521 14.3462 40.5465V37.8305C14.3462 34.9828 16.6547 32.6716 19.505 32.6716C19.9291 32.6716 20.3317 32.5796 20.6935 32.415L20.7108 32.4523L21.8518 33.3357Z" fill="#FFBD7B"/>
<path d="M28.1482 33.3357C27.8198 33.5899 27.9933 34.1228 28.4086 34.1244C31.3372 34.1354 33.5784 36.4869 33.5784 39.2833V41.0999H35.1003C35.406 41.0999 35.6538 40.8521 35.6538 40.5465V37.8305C35.6538 34.9828 33.3452 32.6716 30.495 32.6716C30.0709 32.6716 29.6683 32.5796 29.3064 32.415L29.2892 32.4523L28.1482 33.3357Z" fill="#FAA157"/>
</svg>
