<svg width="49" height="49" viewBox="0 0 49 49" fill="none" xmlns="http://www.w3.org/2000/svg">
<rect width="49" height="49" rx="12" fill="#FFF6DA"/>
<path d="M37.0229 41.1361C36.9981 41.0123 35.4881 33.4599 35.4715 33.3823C35.2901 32.5081 34.7987 31.8385 34.0776 31.407C33.6452 31.1474 33.3998 31.106 33.1194 31.0202C33.3165 31.0888 29.5058 29.7629 27.9702 29.2286C27.6663 29.1248 27.4622 28.8403 27.4622 28.5204V26.9507C25.4899 27.9325 23.4217 27.8705 21.5859 26.9786V28.5204C21.5859 28.8403 21.3818 29.1249 21.0779 29.2286C20.8614 29.3025 21.8619 28.961 18.9611 29.9512H18.9591L15.9308 31.0202C15.791 31.0613 15.5148 31.1425 15.5324 31.1373C14.812 31.4048 14.1873 31.9128 13.8372 32.6231C13.5949 33.1124 13.6668 32.9406 12.4909 38.8172C12.0555 41.0618 11.9594 41.2253 12.0138 41.7268C12.1654 43.1286 13.6136 42.9823 13.6528 42.9994C16.4298 42.9994 24.7979 42.9994 24.5343 42.9994C24.5635 42.9994 25.815 42.9994 25.7372 42.9994C27.671 42.9994 34.5263 42.9994 35.397 42.9994C35.4125 42.9942 37.3069 43.1377 37.0229 41.1361Z" fill="#6C7D87"/>
<path d="M13.7959 41.1361L15.3472 32.6779C15.3257 32.7807 15.4624 31.5466 16.6286 30.774C15.3261 31.2335 15.7298 31.0496 15.3294 31.2205C14.5736 31.5603 13.9875 32.1377 13.6985 32.9513C13.5829 33.2781 13.6578 32.9909 12.4909 38.8172C12.0555 41.0618 11.9594 41.2253 12.0138 41.7268C12.1654 43.1286 13.6136 42.9823 13.6528 42.9994C13.8255 42.9994 15.2085 42.9993 15.4216 42.9993C14.1737 42.9994 13.6344 42.2728 13.7959 41.1361Z" fill="#566A75"/>
<path d="M16.8539 42.9994C15.844 42.9994 14.6808 42.9994 13.6528 42.9994C13.6119 42.9815 11.9611 43.1466 12.0023 41.4334C12.0113 41.0681 12.0573 41.0527 12.4909 38.8172L12.516 38.6918H16.8539V42.9994Z" fill="#DD9A5E"/>
<path d="M14.2442 38.6919L12.516 38.6918L12.4909 38.8172C12.0557 41.0605 12.0113 41.0675 12.0023 41.4334C11.9612 43.1409 13.6203 42.9852 13.6528 42.9994C13.8255 42.9994 15.2085 42.9993 15.4216 42.9993C14.2722 42.9993 13.7479 42.3974 13.7711 41.4334C13.7739 41.3215 13.8157 41.0875 14.2442 38.6919Z" fill="#D18C54"/>
<path d="M21.5859 26.7077C21.5859 31.0866 21.5859 26.2089 21.586 29.6578H21.5879V29.7632C21.5879 30.4639 22.0374 31.0866 22.7046 31.3091C23.7755 31.666 25.1505 31.7067 26.3434 31.3091C27.0108 31.0866 27.4602 30.4639 27.4602 29.7632V29.6578H27.462C27.462 28.9716 27.4621 27.0748 27.4621 26.7077C25.5584 27.7183 23.4117 27.677 21.5859 26.7077Z" fill="#DD9A5E"/>
<path d="M23.3569 30.2433H23.3547C23.3545 26.5772 23.3546 27.7987 23.3545 27.5427C22.7441 27.4209 22.1488 27.2117 21.5859 26.9128C21.5859 31.2917 21.5859 26.2089 21.586 29.6578H21.5879V29.7632C21.5879 30.4639 22.0374 31.0866 22.7046 31.3091C23.0346 31.4191 23.383 31.4986 23.7448 31.5445C23.2951 30.9365 23.3638 30.2898 23.3569 30.2433Z" fill="#D18C54"/>
<path d="M16.8538 36.9639C16.5608 36.9639 16.3232 37.2004 16.3232 37.4922V42.9994C16.6912 42.9994 16.9894 42.9994 17.3844 42.9994V37.4922C17.3845 37.2004 17.1469 36.9639 16.8538 36.9639Z" fill="#566A75"/>
<path d="M41.7022 42.9994H24.5239C23.8072 42.9994 23.2262 42.4209 23.2262 41.7074C23.2262 41.2984 23.5592 40.9669 23.9699 40.9669H42.2562C42.667 40.9669 43 41.2984 43 41.7074C43 42.4209 42.419 42.9994 41.7022 42.9994Z" fill="#C6C6C6"/>
<path d="M26.5689 41.7074C26.5689 41.2984 26.9019 40.9669 27.3127 40.9669H23.9699C23.5592 40.9669 23.2262 41.2984 23.2262 41.7074C23.2262 42.4209 23.8072 42.9994 24.5239 42.9994L27.8666 42.9994C27.1499 42.9994 26.5689 42.4209 26.5689 41.7074Z" fill="#B7B7B7"/>
<path d="M40.577 29.6578H25.6492C25.1823 29.6578 24.8002 30.0382 24.8002 30.503V40.1217C24.8002 40.5865 25.1823 40.9669 25.6492 40.9669H40.577C41.044 40.9669 41.426 40.5865 41.426 40.1217V30.503C41.426 30.0382 41.044 29.6578 40.577 29.6578Z" fill="#EDEDED"/>
<path d="M26.569 40.1217V30.503C26.569 30.0382 26.951 29.6578 27.4179 29.6578H25.6492C25.1823 29.6578 24.8002 30.0382 24.8002 30.503V40.1217C24.8002 40.5865 25.1823 40.9669 25.6492 40.9669H27.4179C26.951 40.9669 26.569 40.5865 26.569 40.1217Z" fill="#DADADA"/>
<path d="M33.1134 36.533C33.7907 36.533 34.3397 35.9864 34.3397 35.3122C34.3397 34.6379 33.7907 34.0913 33.1134 34.0913C32.4362 34.0913 31.8872 34.6379 31.8872 35.3122C31.8872 35.9864 32.4362 36.533 33.1134 36.533Z" fill="#DADADA"/>
<path d="M33.1137 34.0925C32.1787 34.091 31.5764 35.1042 32.0511 35.9228C32.5261 36.7417 33.7084 36.7283 34.1746 35.9218C33.2313 35.9205 32.6424 34.9078 33.1137 34.0925Z" fill="#C6C6C6"/>
<path d="M24.364 8.00785C19.7938 8.02521 15.9353 11.7396 15.9353 16.4587V19.6614H32.9147C32.9147 16.6264 32.9147 17.5853 32.9147 14.8701C32.9147 11.5974 30.8923 10.8436 30.8923 10.8436C28.3773 7.75621 24.3674 8.00778 24.3674 8.00778" fill="#4C4846"/>
<path d="M25.5109 8.05876C20.3313 7.47175 16.1162 11.3638 15.9425 16.1261C15.9291 16.4685 15.9381 16.3399 15.9353 19.6614L17.9576 19.6618V16.4591C17.9576 12.0874 21.2817 8.52087 25.5109 8.05876Z" fill="#3D3938"/>
<path d="M18.0263 18.6556C16.9615 18.2779 15.8055 18.9804 15.8055 20.0054C15.8055 21.0301 16.9613 21.733 18.0263 21.3552V18.6556Z" fill="#DD9A5E"/>
<path d="M30.8236 18.6556C31.8885 18.2779 33.0445 18.9804 33.0445 20.0054C33.0445 21.0301 31.8886 21.733 30.8236 21.3552V18.6556Z" fill="#DD9A5E"/>
<path d="M15.961 19.3848C15.339 20.5604 16.6486 21.8439 18.0263 21.3552L18.0263 20.1139C17.2229 20.3988 16.3246 20.0719 15.961 19.3848Z" fill="#D18C54"/>
<path d="M30.8236 20.1139V21.3552C32.2012 21.8439 33.5109 20.5604 32.8889 19.3848C32.6288 19.8766 31.6273 20.399 30.8236 20.1139Z" fill="#D18C54"/>
<path d="M30.6005 15.9811C30.7654 15.9969 30.8923 16.1332 30.8923 16.2981C30.8923 21.719 30.8959 21.3097 30.8832 21.5618C30.7993 23.2106 30.091 24.7245 28.939 25.8435C24.9021 29.762 18.1658 26.983 17.9631 21.4865C17.9537 21.2441 17.9576 18.4364 17.9576 18.4444C17.9576 17.1819 19.083 16.2187 20.3381 16.3991C22.3147 16.6832 25.2 16.5729 27.7175 14.4304C27.9762 14.2103 28.3688 14.2814 28.534 14.5776C28.8459 15.1369 29.4662 15.8721 30.6005 15.9811Z" fill="#EDAE6B"/>
<path d="M19.7327 21.4864C19.7246 21.2786 19.7263 17.4753 19.727 16.4008C18.7398 16.5483 17.9576 17.3921 17.9576 18.4444C17.9576 18.4364 17.9537 21.2441 17.9631 21.4865C18.1125 25.5391 21.8138 28.1138 25.3662 27.6165C22.4494 27.215 19.8572 24.8643 19.7327 21.4864Z" fill="#DD9A5E"/>
</svg>
