<svg width="21" height="21" viewBox="0 0 21 21" fill="none" xmlns="http://www.w3.org/2000/svg">
<path d="M5.50637 9.36863L10.5 14.3623L15.4936 9.36863L14.2564 8.13138L10.5 11.8878L6.74362 8.13138L5.50637 9.36863Z" fill="url(#paint0_linear_10_304)"/>
<path d="M20.5 7L20.5 14L21.5 14L21.5 7L20.5 7ZM14 20.5L7 20.5L7 21.5L14 21.5L14 20.5ZM0.499999 14L0.5 7L-0.5 7L-0.500001 14L0.499999 14ZM7 0.499999L14 0.5L14 -0.5L7 -0.500001L7 0.499999ZM0.5 7C0.5 3.41015 3.41015 0.499999 7 0.499999L7 -0.500001C2.85786 -0.500001 -0.5 2.85786 -0.5 7L0.5 7ZM7 20.5C3.41015 20.5 0.499999 17.5898 0.499999 14L-0.500001 14C-0.500001 18.1421 2.85786 21.5 7 21.5L7 20.5ZM20.5 14C20.5 17.5899 17.5898 20.5 14 20.5L14 21.5C18.1421 21.5 21.5 18.1421 21.5 14L20.5 14ZM21.5 7C21.5 2.85786 18.1421 -0.5 14 -0.5L14 0.5C17.5899 0.5 20.5 3.41015 20.5 7L21.5 7Z" fill="url(#paint1_linear_10_304)"/>
<defs>
<linearGradient id="paint0_linear_10_304" x1="18.7803" y1="11.4047" x2="11.8591" y2="20.297" gradientUnits="userSpaceOnUse">
<stop stop-color="#33DEE9"/>
<stop offset="1" stop-color="#42E884"/>
</linearGradient>
<linearGradient id="paint1_linear_10_304" x1="27.9108" y1="11.032" x2="4.42473" y2="29.8575" gradientUnits="userSpaceOnUse">
<stop stop-color="#33DEE9"/>
<stop offset="1" stop-color="#42E884"/>
</linearGradient>
</defs>
</svg>
