<svg width="25" height="29" viewBox="0 0 25 29" fill="none" xmlns="http://www.w3.org/2000/svg">
<path fill-rule="evenodd" clip-rule="evenodd" d="M6.67763 0C5.94005 0 5.3421 0.649194 5.3421 1.45V2.9H4.00658C1.79381 2.9 0 4.84757 0 7.25V10.15V24.65C0 27.0525 1.79381 29 4.00658 29H20.0329C22.2457 29 24.0395 27.0525 24.0395 24.65V10.15V7.25C24.0395 4.84757 22.2457 2.9 20.0329 2.9H18.6974V1.45C18.6974 0.649194 18.0995 0 17.3618 0C16.6242 0 16.0263 0.649194 16.0263 1.45V2.9H8.01316V1.45C8.01316 0.649194 7.41522 0 6.67763 0ZM17.3618 5.79997H6.67763H4.00658C3.26899 5.79997 2.67105 6.44916 2.67105 7.24997V8.69997H21.3684V7.24997C21.3684 6.44916 20.7705 5.79997 20.0329 5.79997H17.3618ZM2.67105 24.65V11.6H21.3684V24.65C21.3684 25.4508 20.7705 26.1 20.0329 26.1H4.00658C3.26899 26.1 2.67105 25.4508 2.67105 24.65ZM5.34212 18.125C5.34212 17.3241 5.94006 16.675 6.67764 16.675H17.3619C18.0995 16.675 18.6974 17.3241 18.6974 18.125V19.575C18.6974 20.3758 18.0995 21.025 17.3619 21.025H6.67764C5.94006 21.025 5.34212 20.3758 5.34212 19.575V18.125Z" fill="url(#paint0_linear_132_1827)"/>
<defs>
<linearGradient id="paint0_linear_132_1827" x1="12.6287" y1="-9.54348" x2="39.2494" y2="17.9867" gradientUnits="userSpaceOnUse">
<stop stop-color="#33DEE9"/>
<stop offset="1" stop-color="#42E884"/>
</linearGradient>
</defs>
</svg>
