<svg width="18" height="18" viewBox="0 0 18 18" fill="none" xmlns="http://www.w3.org/2000/svg">
<g clip-path="url(#clip0_32_1898)">
<path d="M17.0399 7.29143L2.7242 0.364114C1.78122 -0.0929213 0.646318 0.301005 0.189245 1.24398C-0.0438127 1.72481 -0.0633052 2.2816 0.135548 2.77759L2.37192 8.36659H17.9993C17.8347 7.8951 17.4896 7.50833 17.0399 7.29143Z" fill="url(#paint0_linear_32_1898)"/>
<path d="M2.37262 9.63153L0.136239 15.2218C-0.251832 16.1978 0.224771 17.3036 1.20077 17.6917C1.42174 17.7796 1.65728 17.8252 1.89509 17.8263C2.18243 17.8263 2.46608 17.7614 2.72485 17.6365L17.0405 10.7067C17.4903 10.4898 17.8354 10.103 17.9999 9.63153H2.37262Z" fill="url(#paint1_linear_32_1898)"/>
</g>
<defs>
<linearGradient id="paint0_linear_32_1898" x1="9.45528" y1="-2.52245" x2="14.301" y2="10.7595" gradientUnits="userSpaceOnUse">
<stop stop-color="#33DEE9"/>
<stop offset="1" stop-color="#42E884"/>
</linearGradient>
<linearGradient id="paint1_linear_32_1898" x1="9.45652" y1="6.93476" x2="14.3045" y2="20.2188" gradientUnits="userSpaceOnUse">
<stop stop-color="#33DEE9"/>
<stop offset="1" stop-color="#42E884"/>
</linearGradient>
<clipPath id="clip0_32_1898">
<rect width="18" height="18" fill="white"/>
</clipPath>
</defs>
</svg>
