<svg width="29" height="19" viewBox="0 0 29 19" fill="none" xmlns="http://www.w3.org/2000/svg">
<path d="M15.0203 14.057C15.408 14.057 15.7008 13.9213 15.9155 13.6422C16.1363 13.3552 16.2483 12.9742 16.2483 12.5098V11.3648C16.2483 10.9094 16.1351 10.533 15.9117 10.246C15.6942 9.96644 15.4012 9.83058 15.016 9.83058C14.6318 9.83058 14.3436 9.96519 14.1347 10.242C13.919 10.528 13.8097 10.9057 13.8097 11.3648V12.5098C13.8097 12.9745 13.9204 13.3558 14.1388 13.6429C14.3503 13.9215 14.6387 14.057 15.0203 14.057Z" fill="#3BBDB2"/>
<path d="M24.7794 9.33036C24.9768 8.70587 25.0766 8.05724 25.0766 7.3975C25.0766 3.85931 22.1981 0.980789 18.66 0.980789C16.5139 0.980789 14.4933 2.07502 13.3108 3.85687C12.4017 3.20771 11.3023 2.85333 10.1808 2.85333C7.21061 2.85333 4.79416 5.26977 4.79416 8.24005C4.79416 8.59217 4.82833 8.94275 4.89591 9.28614C2.64308 9.74566 0.980804 11.7549 0.980804 14.0834C0.980804 16.7838 3.17771 18.9807 5.87806 18.9807H23.6005C26.3009 18.9807 28.4977 16.7838 28.4977 14.0834C28.4977 11.8128 26.9532 9.86488 24.7794 9.33036ZM11.4217 10.9539L11.3721 11.1032H9.887V10.9547C9.887 10.5789 9.7994 10.2913 9.62657 10.0996C9.45773 9.91248 9.18174 9.81757 8.8062 9.81757C8.47564 9.81757 8.22051 9.94814 8.02617 10.2168C7.82369 10.4964 7.72105 10.8621 7.72105 11.3038V12.5622C7.72105 13.0082 7.8288 13.3758 8.04133 13.655C8.24719 13.9255 8.51861 14.057 8.87109 14.057C9.22031 14.057 9.47794 13.9667 9.63674 13.7885C9.79987 13.6055 9.8826 13.3205 9.8826 12.9416V12.793H11.3633L11.4131 12.9423L11.4134 12.9651C11.4256 13.6839 11.2008 14.2644 10.7452 14.6906C10.293 15.1137 9.66247 15.3281 8.87104 15.3281C8.07377 15.3281 7.41606 15.0669 6.91601 14.5515C6.41709 14.0376 6.16415 13.3691 6.16415 12.565V11.314C6.16415 10.5138 6.41073 9.84598 6.89711 9.32923C7.38599 8.80987 8.02825 8.54653 8.80614 8.54653C9.61974 8.54653 10.268 8.76125 10.7329 9.18482C11.2024 9.61266 11.4342 10.2002 11.422 10.9312L11.4217 10.9539ZM17.8095 12.5044C17.8095 13.314 17.5485 13.994 17.0339 14.5254C16.518 15.058 15.8406 15.3281 15.0203 15.3281C14.2056 15.3281 13.5331 15.0579 13.0215 14.5249C12.5114 13.9936 12.2528 13.3138 12.2528 12.5044V11.3702C12.2528 10.5638 12.5106 9.88479 13.019 9.35211C13.5293 8.81754 14.2011 8.54641 15.016 8.54641C15.8361 8.54641 16.5143 8.81724 17.0317 9.35134C17.5478 9.88419 17.8095 10.5634 17.8095 11.3702V12.5044ZM23.3657 15.2372H18.7657V14.2032L20.8446 11.9744C21.1269 11.6505 21.3316 11.3722 21.4499 11.1509C21.5618 10.9414 21.6185 10.7472 21.6185 10.5737C21.6185 10.3423 21.5599 10.1607 21.4393 10.0182C21.3251 9.88318 21.1632 9.81757 20.9446 9.81757C20.6998 9.81757 20.521 9.89555 20.398 10.0559C20.2677 10.2261 20.2015 10.4615 20.2015 10.7555V10.9041H18.7166L18.6668 10.7556L18.6663 10.7333C18.6508 10.1256 18.8538 9.6035 19.2696 9.18161C19.6848 8.76012 20.2484 8.54641 20.9446 8.54641C21.629 8.54641 22.1775 8.72988 22.5748 9.09163C22.9761 9.45707 23.1796 9.94844 23.1796 10.552C23.1796 10.9604 23.066 11.3423 22.8418 11.6871C22.6288 12.0146 22.2749 12.4472 21.7896 12.973L20.8776 13.9661H23.3657V15.2372H23.3657Z" fill="#3BBDB2"/>
</svg>
