<svg width="18" height="18" viewBox="0 0 18 18" fill="none" xmlns="http://www.w3.org/2000/svg">
<path d="M2.5 14.2444L3.009 14.2863L3.09375 14.2933L3.4932 14.3262C3.47553 14.4322 3.4137 14.5721 3.26786 14.6633C3.20401 14.7032 3.14194 14.7218 3.09375 14.7305C3.05337 14.7377 3.02274 14.738 3.009 14.738C2.97448 14.738 2.94812 14.7342 2.93748 14.7325C2.92549 14.7307 2.91695 14.7288 2.91594 14.7286C2.91506 14.7284 2.91395 14.7281 2.91913 14.7293L2.93712 14.7333C2.96988 14.7402 3.02497 14.75 3.09375 14.75H14.9062C15.0102 14.75 15.1045 14.7277 15.185 14.6914C15.2243 14.6737 15.2613 14.6522 15.295 14.6275C15.3185 14.6103 15.3717 14.5692 15.4186 14.5022L15.5091 14.3729L15.509 14.2151L15.5 3.75557L14.9067 3.71158L14.9062 3.71154L14.5055 3.68183C14.5207 3.58099 14.5745 3.44948 14.704 3.35544C14.7783 3.30151 14.8524 3.27887 14.9062 3.26917C14.9083 3.2688 14.9103 3.26844 14.9124 3.26811C14.9364 3.26409 14.9561 3.26266 14.9694 3.26204C15.0164 3.25985 15.052 3.26532 15.0607 3.26666L15.0609 3.26669C15.0723 3.26844 15.0803 3.27021 15.0765 3.26942C15.0757 3.26926 15.0747 3.26905 15.0735 3.26878C15.0564 3.26506 14.9917 3.25104 14.9126 3.25004L14.9126 3.25H14.9062H3.09375C2.98975 3.25 2.89547 3.27234 2.81505 3.30857C2.77568 3.32631 2.73871 3.34779 2.70496 3.3725C2.68147 3.38969 2.62827 3.43079 2.58138 3.49777L2.49086 3.62708L2.491 3.78493L2.5 14.2444ZM3.09375 2.75H14.9062C15.5381 2.75 16 3.22701 16 3.75V14.25C16 14.773 15.5381 15.25 14.9062 15.25H3.09375C2.46191 15.25 2 14.773 2 14.25V3.75C2 3.22701 2.46191 2.75 3.09375 2.75Z" fill="#A0A3BD" stroke="#CACACA"/>
<path d="M5 12.25V11.75H9.75H10.5H13V12.25H10.5H9.75H5ZM5 8.75H10V9.25H5V8.75ZM5 5.75H12.25V6.25H5V5.75Z" fill="#484848" stroke="#CACACA"/>
</svg>
