<svg width="16" height="16" viewBox="0 0 16 16" fill="none" xmlns="http://www.w3.org/2000/svg">
<path d="M8.00112 0C5.71539 0 3.84692 1.86847 3.84692 4.1542C3.84692 6.43993 5.71539 8.3084 8.00112 8.3084C10.2868 8.3084 12.1553 6.43993 12.1553 4.1542C12.1553 1.86847 10.2868 0 8.00112 0Z" fill="#CACACA"/>
<path d="M15.1305 11.6281C15.0216 11.356 14.8765 11.102 14.7133 10.8662C13.8788 9.63259 12.5908 8.81627 11.1396 8.61673C10.9582 8.5986 10.7587 8.63485 10.6135 8.74371C9.85161 9.30607 8.9446 9.59631 8.00127 9.59631C7.05793 9.59631 6.15092 9.30607 5.38901 8.74371C5.24387 8.63485 5.04432 8.58044 4.86293 8.61673C3.41168 8.81627 2.10557 9.63259 1.28925 10.8662C1.12599 11.102 0.980849 11.3741 0.872029 11.6281C0.817619 11.7369 0.835744 11.8639 0.890154 11.9728C1.03529 12.2267 1.21668 12.4807 1.37995 12.6984C1.6339 13.0431 1.90602 13.3514 2.21442 13.6417C2.46838 13.8956 2.75863 14.1315 3.0489 14.3673C4.48199 15.4376 6.20536 15.9999 7.98314 15.9999C9.76092 15.9999 11.4843 15.4376 12.9174 14.3673C13.2076 14.1496 13.4979 13.8956 13.7519 13.6417C14.0421 13.3514 14.3323 13.043 14.5863 12.6984C14.7677 12.4626 14.931 12.2267 15.0761 11.9728C15.1668 11.8639 15.1849 11.7369 15.1305 11.6281Z" fill="#CACACA"/>
</svg>
