<svg width="23" height="23" viewBox="0 0 23 23" fill="none" xmlns="http://www.w3.org/2000/svg">
<path fill-rule="evenodd" clip-rule="evenodd" d="M6.71558 9.69116C5.84657 9.69116 5.13556 10.3946 5.13556 11.2543C5.13556 12.114 5.84657 12.8174 6.71558 12.8174C7.58459 12.8174 8.2956 12.114 8.2956 11.2543C8.2956 10.3946 7.58459 9.69116 6.71558 9.69116ZM16.1957 9.69116C15.3267 9.69116 14.6157 10.3946 14.6157 11.2543C14.6157 12.114 15.3267 12.8174 16.1957 12.8174C17.0647 12.8174 17.7757 12.114 17.7757 11.2543C17.7757 10.3946 17.0647 9.69116 16.1957 9.69116ZM9.87562 11.2543C9.87562 10.3946 10.5866 9.69116 11.4556 9.69116C12.3246 9.69116 13.0357 10.3946 13.0357 11.2543C13.0357 12.114 12.3246 12.8174 11.4556 12.8174C10.5866 12.8174 9.87562 12.114 9.87562 11.2543Z" fill="#81789C"/>
</svg>
