<svg width="17" height="25" viewBox="0 0 17 25" fill="none" xmlns="http://www.w3.org/2000/svg">
<path d="M9.02029 16.0259C9.40802 16.0259 9.70083 15.8903 9.91549 15.6112C10.1363 15.3241 10.2483 14.9431 10.2483 14.4787V13.3337C10.2483 12.8784 10.1351 12.5019 9.91169 12.215C9.69417 11.9354 9.40118 11.7995 9.01601 11.7995C8.63179 11.7995 8.34356 11.9341 8.13472 12.211C7.91904 12.4969 7.80969 12.8747 7.80969 13.3338V14.4788C7.80969 14.9435 7.92041 15.3247 8.13876 15.6119C8.35033 15.8904 8.63875 16.0259 9.02029 16.0259Z" fill="#3BBDB2"/>
<path d="M15.9688 10.9571C15.9564 10.9338 15.9434 10.9109 15.9288 10.8888L9.13312 0.360633C8.98732 0.134271 8.7513 1.52588e-05 8.49995 1.52588e-05C8.24835 1.52588e-05 8.01259 0.134271 7.86683 0.360633L1.07107 10.8888C1.05708 10.9109 1.0436 10.9336 1.03137 10.9571C-0.364626 13.6201 -0.342321 16.8526 1.09127 19.6045C2.62682 22.5527 5.46575 24.3841 8.49995 24.3841C11.5342 24.3841 14.3731 22.5524 15.9089 19.6042C17.3422 16.8526 17.3647 13.6198 15.9688 10.9571ZM14.5604 18.7451C13.3019 21.1617 10.9796 22.6629 8.49995 22.6629C6.02054 22.6629 3.69831 21.162 2.43955 18.7454C1.27621 16.5118 1.24745 14.0028 2.35941 11.8547L8.49995 2.34174L14.6405 11.855C15.7522 14.0031 15.7237 16.512 14.5604 18.7451Z" fill="#3BBDB2"/>
<path d="M12.5722 14.1718C12.1424 14.1718 11.7941 14.557 11.7941 15.0324C11.7941 17.0726 10.2931 18.7328 8.44807 18.7328C8.01828 18.7328 7.66992 19.1181 7.66992 19.5934C7.66992 20.0687 8.01828 20.454 8.44807 20.454C11.151 20.454 13.3503 18.0216 13.3503 15.0324C13.3504 14.557 13.002 14.1718 12.5722 14.1718Z" fill="#3BBDB2"/>
</svg>
