<svg width="16" height="16" viewBox="0 0 16 16" fill="none" xmlns="http://www.w3.org/2000/svg">
<path fill-rule="evenodd" clip-rule="evenodd" d="M5.89475 0C5.51876 0 5.18833 0.231322 5.08505 0.566841L4.4447 2.64688L2.22437 2.3525C1.84743 2.30253 1.48126 2.49351 1.33126 2.81832L0.0681105 5.55374C-0.067527 5.84748 0.0031844 6.18827 0.24667 6.41424L1.75648 7.81548L0.24667 9.21671C-0.0218513 9.46595 -0.0774301 9.8511 0.110982 10.1571L1.79519 12.8925C1.97008 13.1766 2.31707 13.3295 2.66478 13.2757L4.44949 12.9996L5.08505 15.0641C5.18833 15.3996 5.51876 15.631 5.89475 15.631H10.1052C10.4812 15.631 10.8117 15.3996 10.915 15.0641L11.5505 12.9996L13.3352 13.2757C13.6829 13.3295 14.0299 13.1766 14.2048 12.8925L15.8891 10.1571C16.0774 9.8511 16.0219 9.46595 15.7533 9.21671L14.2435 7.81548L15.7533 6.41424C15.9968 6.18827 16.0675 5.84748 15.9319 5.55374L14.6688 2.81832C14.5188 2.49351 14.1526 2.30253 13.7756 2.3525L11.5553 2.64688L10.915 0.566841C10.8117 0.231322 10.4812 0 10.1052 0H5.89475ZM5.86226 3.73167L6.52984 1.5631H9.46996L10.1376 3.73167C10.2532 4.10721 10.6497 4.34589 11.0664 4.29066L13.3749 3.98459L14.1592 5.68313L12.4571 7.26285C12.1282 7.56804 12.1282 8.06292 12.4571 8.36811L14.1075 9.89987L13.0335 11.6444L11.0857 11.3431C10.6633 11.2777 10.2552 11.5171 10.1376 11.8993L9.46996 14.0679H6.52984L5.86226 11.8993C5.7446 11.5171 5.33659 11.2777 4.91412 11.3431L2.96639 11.6444L1.89231 9.89987L3.54277 8.36811C3.87162 8.06292 3.87162 7.56804 3.54277 7.26285L1.84065 5.68313L2.62499 3.98459L4.93347 4.29066C5.35007 4.34589 5.74665 4.10721 5.86226 3.73167ZM7.99992 9.37857C7.06982 9.37857 6.31572 8.67877 6.31572 7.81548C6.31572 6.95218 7.06982 6.25238 7.99992 6.25238C8.93011 6.25238 9.68413 6.95218 9.68413 7.81548C9.68413 8.67877 8.93011 9.37857 7.99992 9.37857ZM4.63153 7.81548C4.63153 6.08893 6.13962 4.68929 7.99991 4.68929C9.86029 4.68929 11.3683 6.08893 11.3683 7.81548C11.3683 9.54199 9.86029 10.9417 7.99991 10.9417C6.13962 10.9417 4.63153 9.54199 4.63153 7.81548Z" fill="#CACACA"/>
</svg>
