<svg width="12" height="22" viewBox="0 0 12 22" fill="none" xmlns="http://www.w3.org/2000/svg">
<path d="M11.2806 10.7824C11.2341 10.3666 11.0587 10.0355 10.8295 9.93434L6.63718 8.04677L8.18762 1.53378C8.29885 1.06849 8.21879 0.526196 7.99389 0.222601C7.76838 -0.0842942 7.45671 -0.0721942 7.23975 0.249001L0.51729 10.1488C0.338228 10.4128 0.256947 10.8352 0.307671 11.2411C0.357784 11.647 0.531346 11.9671 0.755631 12.0672L4.86184 13.9163L2.81759 20.3556C2.67398 20.8088 2.72654 21.3808 2.94349 21.7261C3.05838 21.9076 3.20322 22 3.34806 22C3.47701 22 3.60596 21.9274 3.71474 21.78L11.0483 11.8802C11.2366 11.625 11.3276 11.1993 11.2806 10.7824Z" fill="#3BBDB2"/>
</svg>
