<svg width="25" height="25" viewBox="0 0 25 25" fill="none" xmlns="http://www.w3.org/2000/svg">
<path d="M11.75 17.7464H12.25V17.2464V15.2464V14.7464H11.75H5.75H5.25V15.2464V17.2464V17.7464H5.75H11.75ZM19.75 13.7464H20.25V13.2464V11.2464V10.7464H19.75H5.75H5.25V11.2464V13.2464V13.7464H5.75H19.75ZM19.75 9.7464H20.25V9.2464V7.2464V6.7464H19.75H5.75H5.25V7.2464V9.2464V9.7464H5.75H19.75ZM4.75 3.7464H20.75C21.5779 3.7464 22.25 4.41854 22.25 5.2464V19.2464C22.25 20.0743 21.5779 20.7464 20.75 20.7464H4.75C3.92214 20.7464 3.25 20.0743 3.25 19.2464V5.2464C3.25 4.41854 3.92214 3.7464 4.75 3.7464Z" fill="#D0D3E5" stroke="#D0D3E5"/>
</svg>
